<svg width="114" height="27" viewBox="0 0 114 27" fill="none" xmlns="http://www.w3.org/2000/svg">
<g clip-path="url(#clip0)">
<path fill-rule="evenodd" clip-rule="evenodd" d="M-0.000109514 25.8154H6.38353V16.8099C6.38353 13.2851 6.38368 6.80642 11.575 6.80642C12.555 6.76208 13.5326 6.94121 14.4332 7.33025V0.898625C13.7942 0.744051 13.1365 0.680374 12.4797 0.7095C8.66906 0.7095 6.0482 4.56636 5.76143 6.85348H5.66735V1.28217H-0.000976562L-0.000109514 25.8154Z" fill="#043865"/>
<path fill-rule="evenodd" clip-rule="evenodd" d="M40.9186 1.28235H34.5323V13.2853C34.5323 16.431 33.5334 21.4332 28.9121 21.4332C24.8164 21.4332 24.7668 17.3827 24.7668 14.3809V1.28235H18.3831V16.7639C18.3831 22.2882 20.907 26.3856 26.7181 26.3856C28.2686 26.3872 29.7996 26.0364 31.1946 25.3596C32.5897 24.6828 33.8127 23.6978 34.7712 22.479H34.8679V25.8156H40.9194L40.9186 1.28235Z" fill="#043865"/>
<path fill-rule="evenodd" clip-rule="evenodd" d="M47.3903 25.8154H53.7748V13.9039C53.7748 10.7129 54.2971 5.66188 58.5357 5.66188C62.2061 5.66188 62.206 8.90079 62.206 11.1906V25.8154H68.5896V13.9039C68.5896 10.7129 69.111 5.66188 73.3523 5.66188C77.0191 5.66188 77.019 8.90079 77.019 11.1906V25.8154H83.4035V10.332C83.4035 4.85394 81.6837 0.709413 75.6374 0.709413C74.0833 0.652283 72.5441 1.02725 71.1903 1.79261C69.8365 2.55798 68.7215 3.68376 67.9692 5.04483C66.5851 1.99415 64.1566 0.709413 60.7268 0.709413C59.2736 0.709517 57.844 1.0762 56.5701 1.7755C55.2963 2.47481 54.2194 3.48415 53.4392 4.71011H53.3434V1.28208H47.3894L47.3903 25.8154Z" fill="#043865"/>
<path fill-rule="evenodd" clip-rule="evenodd" d="M104.735 6.86688L103.078 8.27591C101.777 7.69466 100.368 7.39511 98.9428 7.39693C97.4051 7.41166 95.8906 7.76951 94.5087 8.44435C93.1269 9.11918 91.9127 10.094 90.9556 11.2976C89.9985 12.5013 89.3223 13.9034 88.9761 15.4018C88.6299 16.9001 88.6224 18.4568 88.9544 19.9583C87.8765 18.0161 87.3174 15.8288 87.3313 13.6075C87.3313 7.29306 91.1497 2.17456 96.9607 2.17456C98.551 2.22071 100.102 2.67695 101.464 3.49907C102.826 4.32119 103.953 5.48128 104.735 6.86688Z" fill="#043865"/>
<path fill-rule="evenodd" clip-rule="evenodd" d="M114 12.5331C114 16.3287 111.822 19.2223 108.368 20.7955L105.437 16.5507C106.492 14.934 107.054 13.045 107.054 11.1143C106.997 8.33273 105.839 5.6874 103.833 3.75969C101.827 1.83198 99.1373 0.779604 96.3556 0.833838H96.2724C97.6492 0.408752 99.077 0.173962 100.517 0.135986C107.965 0.136874 114 6.27818 114 12.5331Z" fill="#043865"/>
<path fill-rule="evenodd" clip-rule="evenodd" d="M112.813 19.1024C111.15 23.1706 106.369 26.9324 100.43 26.9324C94.1115 26.9324 89.9313 22.6707 89.9313 17.4199C89.9329 16.1601 90.2278 14.918 90.7931 13.7921L95.157 14.7617C95.7785 19.3501 100.474 22.7834 105.139 22.7834C106.599 22.7133 108.031 22.3515 109.349 21.7193C110.667 21.087 111.844 20.1972 112.813 19.1024Z" fill="#043865"/>
</g>
<defs>
<clipPath id="clip0">
<rect width="114" height="26.7955" fill="white" transform="translate(0 0.136963)"/>
</clipPath>
</defs>
</svg>
